<svg xmlns="http://www.w3.org/2000/svg" fill="none" viewBox="0 0 16 20">
  <path fill="#000" d="M8 1e-8C5.89206-.00010539 3.86926.831759 2.37124 2.31479.873231 3.79782.0210794 5.81216 0 7.92 0 13.4 7.05 19.5 7.35 19.76c.18113.1549.41165.2401.65.2401s.46887-.0852.65-.2401C9 19.5 16 13.4 16 7.92c-.0211-2.10784-.8732-4.12218-2.3712-5.60521C12.1307.831759 10.1079-.00010539 8 1e-8ZM8 11c-.69223 0-1.36892-.2053-1.9445-.5899-.57557-.3845-1.02417-.93117-1.28908-1.57071s-.33422-1.34327-.19917-2.02221c.13505-.67893.46839-1.30257.95788-1.79205.48948-.48949 1.11312-.82283 1.79205-.95788.67894-.13505 1.38267-.06574 2.02221.19917.63954.26491 1.18621.71351 1.57071 1.28908.3846.57558.5899 1.25227.5899 1.9445 0 .92826-.3687 1.8185-1.0251 2.47487C9.8185 10.6313 8.92826 11 8 11Z"/>
</svg>
